<?xml version="1.0"?>
<svg xmlns="http://www.w3.org/2000/svg" id="Capa_1" enable-background="new 0 0 512 512" height="512" viewBox="0 0 512 512" width="512"><g><g><path d="m512 481.914h-31v-152h-90v152h-30v-242h-90v242h-30v-182h-90v182h-30v-302h-90v302h-31v30h512zm-91-122h30v122h-30zm-120-90h30v212h-30zm-120 60h30v152h-30zm-120-120h30v272h-30z" data-original="#000000" class="active-path" style="fill:#F6921E" data-old_color="#000000"/><path d="m391 269.914h121v-120h-30v68.928l-166.029-165.113-120.006 120.006-174.802-173.649-21.142 21.284 196.014 194.722 119.994-119.994 144.616 143.816h-69.645z" data-original="#000000" class="active-path" style="fill:#F6921E" data-old_color="#000000"/></g></g> </svg>
